<?xml version="1.0" encoding="utf-8"?>
<!-- Generator: Adobe Illustrator 19.0.0, SVG Export Plug-In . SVG Version: 6.00 Build 0)  -->
<svg version="1.1" id="Layer_1" xmlns="http://www.w3.org/2000/svg" xmlns:xlink="http://www.w3.org/1999/xlink" x="0px" y="0px"
	 viewBox="0 0 32 32" style="enable-background:new 0 0 32 32;" xml:space="preserve">
<style type="text/css">
	.linkedin{fill:#1387C8;}
</style>
<g>
	<g>
		<path class="linkedin" d="M31.2,11.1c2.1,6.6-0.2,13.8-5.8,17.9c-5.6,4.1-13.2,4.1-18.8,0c-5.6-4.1-8-11.3-5.8-17.9C2.9,4.5,9.1,0,16,0
			C22.9,0,29.1,4.5,31.2,11.1z M16,1.4C9.7,1.4,4.1,5.5,2.2,11.5c-1.9,6,0.2,12.6,5.3,16.3c5.1,3.7,12,3.7,17.1,0
			c5.1-3.7,7.2-10.3,5.3-16.3C27.9,5.5,22.3,1.4,16,1.4z"/>
	</g>
	<g>
		<path class="linkedin" d="M11,13.6h2.6V22H11V13.6z M12.3,9.4c0.8,0,1.5,0.7,1.5,1.5c0,0.8-0.7,1.5-1.5,1.5c-0.8,0-1.5-0.7-1.5-1.5
			C10.8,10,11.5,9.4,12.3,9.4"/>
		<path id="XMLID_1_" class="linkedin" d="M15.3,13.6h2.5v1.2h0c0.4-0.7,1.2-1.4,2.5-1.4c2.7,0,3.2,1.8,3.2,4V22h-2.6v-4.1
			c0-1,0-2.2-1.4-2.2c-1.4,0-1.6,1.1-1.6,2.2V22h-2.6V13.6z"/>
	</g>
</g>
</svg>
